<svg width="230" height="230" viewBox="0 0 230 230" fill="none" xmlns="http://www.w3.org/2000/svg">
<path d="M114.533 216.814C108.112 216.814 101.596 215.376 96.5164 212.405L43.8083 182.026C22.3417 167.555 21 165.351 21 142.639V87.2469C21 64.5344 22.2458 62.3302 43.3292 48.051L96.4205 17.3844C106.483 11.5385 122.296 11.5385 132.358 17.3844L185.258 47.8594C206.725 62.3302 208.066 64.5344 208.066 87.2469V142.543C208.066 165.255 206.821 167.459 185.737 181.739L132.646 212.405C127.471 215.376 120.954 216.814 114.533 216.814ZM114.533 27.4469C110.508 27.4469 106.579 28.2135 103.8 29.8427L51.0917 60.3177C35.4708 70.8594 35.4708 70.8594 35.4708 87.2469V142.543C35.4708 158.93 35.4708 158.93 51.475 169.759L103.8 199.947C109.454 203.205 119.708 203.205 125.362 199.947L178.071 169.472C193.596 158.93 193.596 158.93 193.596 142.543V87.2469C193.596 70.8594 193.596 70.8594 177.591 60.0302L125.266 29.8427C122.487 28.2135 118.558 27.4469 114.533 27.4469Z" fill="white"/>
<path d="M86.8 128.297C87.6 127.641 87.6 127.312 88 127.312C99.6 113.203 111.6 98.7656 123.2 84.9844C125.6 82.3594 127.6 82.0313 131.2 84C133.2 84.9844 135.6 86.625 137.2 87.6094C139.6 89.25 140.4 91.2187 138.4 93.1875C123.6 110.578 109.2 128.297 94.4 145.687C91.2 149.297 87.2 149.625 83.6 146.672L82.4 145.687L58 125.672C55.6 123.703 55.6 121.734 58 119.766C60 117.797 62 116.484 63.2 115.5C66.4 112.875 68 112.875 71.2 115.5L86.4 127.969C86.4 127.312 86.8 127.969 86.8 128.297Z" fill="white"/>
<path d="M136.775 136.641C137.363 136.172 137.363 135.937 137.656 135.937C146.175 125.859 154.988 115.547 163.506 105.703C165.269 103.828 166.738 103.594 169.381 105C170.85 105.703 172.613 106.875 173.788 107.578C175.55 108.75 176.138 110.156 174.669 111.562C163.8 123.984 153.225 136.641 142.356 149.062C140.006 151.641 137.069 151.875 134.425 149.766L133.544 149.062L115.625 134.766C113.863 133.359 113.863 131.953 115.625 130.547C117.094 129.141 118.563 128.203 119.444 127.5C121.794 125.625 122.969 125.625 125.319 127.5L136.481 136.406C136.481 135.937 136.775 136.406 136.775 136.641Z" fill="white"/>
</svg>
