<?xml version="1.0" encoding="UTF-8"?>
<svg version="1.1" xmlns="http://www.w3.org/2000/svg" width="125" height="136">
<path d="M0 0 C1.83884766 -0.09087891 1.83884766 -0.09087891 3.71484375 -0.18359375 C9.77158976 0.22105643 14.86671366 3.54152107 20.0625 6.4375 C21.05757568 6.99091064 22.05265137 7.54432129 23.07788086 8.11450195 C26.08949382 9.81997406 29.0792521 11.55791792 32.0625 13.3125 C33.10905762 13.92746338 34.15561523 14.54242676 35.23388672 15.17602539 C58.9331447 29.1787894 58.9331447 29.1787894 63.0625 37.4375 C63.17422327 39.37626079 63.22178326 41.31884581 63.23950195 43.26074219 C63.25875481 45.0933963 63.25875481 45.0933963 63.27839661 46.96307373 C63.28656524 48.30350336 63.29400874 49.64393759 63.30078125 50.984375 C63.30689454 51.99641872 63.30689454 51.99641872 63.31313133 53.02890778 C63.3339944 56.60195103 63.34829346 60.17495588 63.35766602 63.74804688 C63.36871432 67.43128739 63.40309415 71.11392106 63.44283772 74.79694748 C63.46904157 77.63491911 63.47736126 80.4727472 63.48094749 83.31082916 C63.48816184 85.32602044 63.51458771 87.34111347 63.54133606 89.35614014 C63.51446528 100.69366767 63.51446528 100.69366767 59.0625 105.4375 C58.50256348 106.04988525 57.94262695 106.66227051 57.36572266 107.29321289 C51.56857991 112.40121288 45.16302393 116.11375135 38.4375 119.875 C37.27418491 120.53383296 36.11134546 121.19350646 34.94897461 121.85400391 C32.67975438 123.14077584 30.40857688 124.42410356 28.13525391 125.70361328 C25.53311135 127.17194448 22.94062537 128.65439713 20.35546875 130.15234375 C19.70723145 130.5275415 19.05899414 130.90273926 18.39111328 131.28930664 C17.8082959 131.62696045 17.22547852 131.96461426 16.625 132.3125 C11.22576303 135.4344618 7.39804907 136.66136675 1.125 136.875 C-0.10089844 136.93558594 -1.32679687 136.99617187 -2.58984375 137.05859375 C-12.58315668 136.38982976 -22.58640942 128.45654818 -31 123.5 C-31.99837891 122.91798828 -32.99675781 122.33597656 -34.02539062 121.73632812 C-39.02809846 118.80482574 -43.9985605 115.82241773 -48.92578125 112.765625 C-49.79114502 112.22969727 -50.65650879 111.69376953 -51.5480957 111.14160156 C-55.80065072 108.10871773 -59.58732882 104.13784237 -61.9375 99.4375 C-62.04922327 97.49873921 -62.09678326 95.55615419 -62.11450195 93.61425781 C-62.12733719 92.3924884 -62.14017242 91.17071899 -62.15339661 89.91192627 C-62.16156524 88.57149664 -62.16900874 87.23106241 -62.17578125 85.890625 C-62.17985678 85.21592918 -62.1839323 84.54123337 -62.18813133 83.84609222 C-62.2089944 80.27304897 -62.22329346 76.70004412 -62.23266602 73.12695312 C-62.24371432 69.44371261 -62.27809415 65.76107894 -62.31783772 62.07805252 C-62.34404157 59.24008089 -62.35236126 56.4022528 -62.35594749 53.56417084 C-62.36316184 51.54897956 -62.38958771 49.53388653 -62.41633606 47.51885986 C-62.38946528 36.18133233 -62.38946528 36.18133233 -57.9375 31.4375 C-57.37756348 30.82511475 -56.81762695 30.21272949 -56.24072266 29.58178711 C-50.44357991 24.47378712 -44.03802393 20.76124865 -37.3125 17 C-36.14918491 16.34116704 -34.98634546 15.68149354 -33.82397461 15.02099609 C-31.55475438 13.73422416 -29.28357688 12.45089644 -27.01025391 11.17138672 C-24.40811135 9.70305552 -21.81562537 8.22060287 -19.23046875 6.72265625 C-18.58223145 6.3474585 -17.93399414 5.97226074 -17.26611328 5.58569336 C-16.39188721 5.07921265 -16.39188721 5.07921265 -15.5 4.5625 C-10.10076303 1.4405382 -6.27304907 0.21363325 0 0 Z M-27.0625 23.375 C-28.06925781 23.95701172 -29.07601562 24.53902344 -30.11328125 25.13867188 C-42.82925825 31.88116245 -42.82925825 31.88116245 -51.9375 42.4375 C-52.38450538 44.99921593 -52.38450538 44.99921593 -52.32568359 47.69921875 C-52.33514008 48.72378174 -52.34459656 49.74834473 -52.3543396 50.80395508 C-52.34826691 51.8998999 -52.34219421 52.99584473 -52.3359375 54.125 C-52.33880768 55.26026123 -52.34167786 56.39552246 -52.34463501 57.56518555 C-52.34667402 59.96240743 -52.3411556 62.359646 -52.32861328 64.75683594 C-52.31255819 68.42420691 -52.32846841 72.09047577 -52.34765625 75.7578125 C-52.34567379 78.0885441 -52.34183006 80.41927501 -52.3359375 82.75 C-52.34201019 83.84594482 -52.34808289 84.94188965 -52.3543396 86.07104492 C-52.34488312 87.09560791 -52.33542664 88.1201709 -52.32568359 89.17578125 C-52.32329681 90.07337158 -52.32091003 90.97096191 -52.31845093 91.89575195 C-51.71901399 95.89526356 -49.94265842 98.56744613 -46.9140625 101.18896484 C-40.09089277 105.78638714 -33.08214065 109.98458445 -25.9375 114.0625 C-24.27074219 115.02542969 -24.27074219 115.02542969 -22.5703125 116.0078125 C-10.02184688 124.32679202 -10.02184688 124.32679202 4.0625 126.4375 C12.4062175 122.72527986 20.31913253 118.11441679 28.1875 113.5 C29.19425781 112.91798828 30.20101562 112.33597656 31.23828125 111.73632812 C43.95425825 104.99383755 43.95425825 104.99383755 53.0625 94.4375 C53.50950538 91.87578407 53.50950538 91.87578407 53.45068359 89.17578125 C53.46486832 87.63893677 53.46486832 87.63893677 53.4793396 86.07104492 C53.47326691 84.9751001 53.46719421 83.87915527 53.4609375 82.75 C53.46380768 81.61473877 53.46667786 80.47947754 53.46963501 79.30981445 C53.47167402 76.91259257 53.4661556 74.515354 53.45361328 72.11816406 C53.43755819 68.45079309 53.45346841 64.78452423 53.47265625 61.1171875 C53.47067379 58.7864559 53.46683006 56.45572499 53.4609375 54.125 C53.46701019 53.02905518 53.47308289 51.93311035 53.4793396 50.80395508 C53.46988312 49.77939209 53.46042664 48.7548291 53.45068359 47.69921875 C53.44710342 46.35283325 53.44710342 46.35283325 53.44345093 44.97924805 C52.84401399 40.97973644 51.06765842 38.30755387 48.0390625 35.68603516 C41.21589277 31.08861286 34.20714065 26.89041555 27.0625 22.8125 C25.95132813 22.17054687 24.84015625 21.52859375 23.6953125 20.8671875 C1.82156609 8.30908368 -5.46917739 10.71156113 -27.0625 23.375 Z " fill="#FFFFFF" transform="translate(61.9375,-0.4375)"/>
<path d="M0 0 C3.0432065 1.18759278 5.12784398 2.84359039 7.5625 5 C6.03525966 10.05237998 2.95680954 13.28824047 -0.5 17.125 C-1.6835288 18.46244793 -2.86581447 19.80099691 -4.046875 21.140625 C-4.62630859 21.79611328 -5.20574219 22.45160156 -5.80273438 23.12695312 C-8.01516847 25.66186865 -10.13549105 28.25774068 -12.25 30.875 C-13.30574219 32.16470703 -13.30574219 32.16470703 -14.3828125 33.48046875 C-15.78647465 35.20168945 -17.17655841 36.93404984 -18.5546875 38.67578125 C-19.23789062 39.50464844 -19.92109375 40.33351562 -20.625 41.1875 C-21.51251953 42.29158203 -21.51251953 42.29158203 -22.41796875 43.41796875 C-24.4375 45 -24.4375 45 -27.26953125 45.5625 C-31.49505669 44.81222175 -33.88283894 42.63860566 -36.9375 39.8125 C-38.03110717 38.83968317 -39.12485648 37.86702609 -40.21875 36.89453125 C-40.74726562 36.41580566 -41.27578125 35.93708008 -41.8203125 35.44384766 C-44.30342806 33.22688729 -46.8684216 31.1163944 -49.4375 29 C-49.10968843 25.94042532 -48.38071599 24.94163866 -46.1875 22.6875 C-43.4375 21 -43.4375 21 -41.01953125 21.16796875 C-37.22857685 22.38956223 -35.16789203 24.83053789 -32.40234375 27.6015625 C-30.56893122 29.19095634 -30.56893122 29.19095634 -28.4453125 29.0078125 C-25.63814536 27.59876751 -24.29415147 25.73234171 -22.375 23.25 C-21.59640625 22.26386719 -20.8178125 21.27773437 -20.015625 20.26171875 C-19.39397461 19.46967041 -19.39397461 19.46967041 -18.75976562 18.66162109 C-16.43984893 15.74630481 -14.03231695 12.90570473 -11.625 10.0625 C-11.16923584 9.51948242 -10.71347168 8.97646484 -10.24389648 8.41699219 C-3.13240231 0 -3.13240231 0 0 0 Z " fill="#EFF1F4" transform="translate(72.4375,45)"/>
<path d="M0 0 C3.625 -0.0625 3.625 -0.0625 7 1 C8.2109375 3.06640625 8.2109375 3.06640625 9 5 C3.62268579 11.71514843 -1.89122957 18.18377425 -7.73828125 24.4921875 C-10.0612197 26.9659106 -10.0612197 26.9659106 -11.98046875 29.8203125 C-14 32 -14 32 -16.29296875 32.65625 C-20.4156814 31.65680451 -23.10404965 29.18967928 -26.3125 26.5 C-26.95767578 25.97535156 -27.60285156 25.45070313 -28.26757812 24.91015625 C-29.85392139 23.61758026 -31.42818306 22.31020194 -33 21 C-32.44655057 18.33237376 -32.1544313 17.1654621 -30.25 15.125 C-28 14 -28 14 -25.5625 14.5625 C-22.77610774 16.1255981 -20.42304526 17.92310407 -18 20 C-14.24819895 17.18780345 -11.35793805 14.22447536 -8.4375 10.5625 C-7.69371094 9.63566406 -6.94992188 8.70882812 -6.18359375 7.75390625 C-4.7299969 5.92065798 -3.31770157 4.05387952 -1.94921875 2.15625 C-1.30597656 1.4446875 -0.66273437 0.733125 0 0 Z " fill="#EFF1F4" transform="translate(95,60)"/>
</svg>
